<?xml version="1.0" encoding="utf-8"?>
<!-- Generator: Adobe Illustrator 23.0.2, SVG Export Plug-In . SVG Version: 6.00 Build 0)  -->
<svg version="1.1" xmlns="http://www.w3.org/2000/svg" xmlns:xlink="http://www.w3.org/1999/xlink" x="0px" y="0px"
	 viewBox="0 0 424 149" style="enable-background:new 0 0 424 149;" xml:space="preserve">
<style type="text/css">
	.st0{display:none;}
	.st1{display:inline;}
	.st2{fill:#444444;}
	.st3{fill:#444444;stroke:#444444;stroke-miterlimit:10;}
	.st4{fill:#F9B528;}
	.st5{fill:#E52334;}
	.st6{fill:#EA601C;}
</style>
<g id="Capa_1" class="st0">
	<g class="st1">
		<path class="st2" d="M58.1,35.2v-9.6H68V85h-9.9v-9.5C53.2,81.9,45.4,86,34.5,86C15.2,86,2.5,72.3,2.5,55.3s12.7-30.7,31.9-30.7
			C45.4,24.6,53.2,28.8,58.1,35.2z M58.6,55.3c0-12.2-8.2-22.6-22.8-22.6S12.4,43.1,12.4,55.3s8.7,22.6,23.4,22.6
			S58.6,67.5,58.6,55.3z"/>
		<path class="st2" d="M79.5,49.7H109v7.8H79.5V49.7z"/>
		<path class="st3" d="M180.8,65.6c0,13.1-11.7,20.3-30.9,20.3c-23.1,0-32.6-9.2-33.7-21.9h9.2c0.6,10.2,11.6,14.3,25.1,14.3
			c13.2,0,21.5-4.1,21.5-12.4c0-17.2-53.5-8.5-53.5-32.6c0-11.5,9.8-19.4,29.4-19.4c20.8,0,30.2,9.6,30.9,20.1h-9.1
			c-0.9-7-7.6-12.6-21.8-12.6c-17.7,0-20.8,7.2-20.8,11.9C127.1,49.5,180.8,41,180.8,65.6z"/>
		<path class="st2" d="M239.4,66.3H250C246.2,77.9,234.5,86,218.9,86c-19.8,0-32.5-13.7-32.5-30.7s12.7-30.7,32.5-30.7
			c15.6,0,27.3,8.1,31.2,19.6h-10.7c-3-6.8-9.8-11.5-19.1-11.5c-14.7,0-23.9,10.3-23.9,22.6s9.2,22.6,23.9,22.6
			C229.6,77.9,236.3,73.1,239.4,66.3z"/>
		<path class="st4" d="M310.5,35.2v-9.6h9.9V85h-9.9v-9.5c-4.9,6.4-12.7,10.5-23.6,10.5c-19.3,0-31.9-13.7-31.9-30.7
			s12.7-30.7,31.9-30.7C297.8,24.6,305.6,28.8,310.5,35.2z M311,55.3c0-12.2-8.2-22.6-22.8-22.6s-23.4,10.3-23.4,22.6
			s8.7,22.6,23.4,22.6S311,67.5,311,55.3z"/>
		<path class="st2" d="M344.2,85h-9.9V1.8h9.9V85z"/>
		<path class="st2" d="M409.5,35.2v-9.6h9.9V85h-9.9v-9.5c-4.9,6.4-12.7,10.5-23.6,10.5c-19.3,0-31.9-13.7-31.9-30.7
			s12.7-30.7,31.9-30.7C396.8,24.6,404.6,28.8,409.5,35.2z M410,55.3c0-12.2-8.2-22.6-22.8-22.6s-23.4,10.3-23.4,22.6
			s8.7,22.6,23.4,22.6S410,67.5,410,55.3z"/>
	</g>
	<g class="st1">
		<path class="st4" d="M264.6,110.1V93.4h5V135h-5v-4.8c-2.4,3.2-6.3,5.2-11.8,5.2c-9.6,0-16-6.8-16-15.3s6.3-15.3,16-15.3
			C258.3,104.8,262.2,106.9,264.6,110.1z M264.9,120.1c0-6.1-4.1-11.3-11.4-11.3c-7.3,0-11.7,5.2-11.7,11.3s4.4,11.3,11.7,11.3
			C260.8,131.4,264.9,126.3,264.9,120.1z"/>
		<path class="st4" d="M300.8,126.4h5.4c-2.3,5.3-7.2,9-15,9c-10.1,0-16.7-6.8-16.7-15.3s6.3-15.3,16.4-15.3s16.4,6.8,16.4,15.3v1.8
			h-27.7c0.7,5.3,5,9.5,11.7,9.5C295.8,131.4,299,129.4,300.8,126.4z M279.6,117.8H302c-0.9-5-4.9-8.9-11.2-8.9
			C284.5,108.9,280.5,112.7,279.6,117.8z"/>
		<path class="st4" d="M336,113.3h-5c-0.4-2.6-2.5-4.6-8.1-4.6c-5.1,0-7.9,1.4-7.9,4.3c0,7.1,22,2.5,22,13.7c0,5.8-5.3,8.9-13.5,8.9
			c-9.2,0-14-4.6-14.3-9.8h5.1c0.3,3,2.8,6,9.2,6c2.7,0,8.4-0.7,8.4-4.7c0-7.4-22-2.8-22-13.7c0-5.3,4.4-8.5,12.9-8.5
			C331.8,104.8,335.4,108.9,336,113.3z"/>
		<path class="st4" d="M346.9,94.5v5.8h-5.3v-5.8H346.9z M341.8,105.3h4.9V135h-4.9V105.3z"/>
		<path class="st4" d="M384.3,105.3v28.8c0,8.5-5.7,13.1-15.6,13.1c-8.3,0-13.5-3.5-15.4-8.7h5.5c1.3,2.9,4.6,4.6,9.6,4.6
			c7.6,0,10.9-3.3,10.9-9.4v-4.1c-2.4,3.2-6.3,5.3-11.8,5.3c-9.6,0-16-6.6-16-15.1s6.3-15.1,16-15.1c5.5,0,9.4,2,11.8,5.2v-4.8
			H384.3z M379.7,119.9c0-6.1-4.2-11-11.4-11c-7.3,0-11.7,4.9-11.7,11c0,6.1,4.4,11,11.7,11C375.4,131,379.7,126,379.7,119.9z"/>
		<path class="st4" d="M396.2,105.3v4.6c2.4-2.9,5.6-5.1,11-5.1c6.8,0,13.2,4.5,13.2,12.9V135h-5v-17.2c0-5.4-3.8-9-9.2-9
			c-5.5,0-10,3.7-10,9V135h-4.9v-29.7H396.2z"/>
	</g>
</g>
<g id="Capa_2" class="st0">
	<g class="st1">
		<path class="st2" d="M57.1,35.2v-9.6H67V85h-9.9v-9.5C52.2,81.9,44.4,86,33.5,86C14.2,86,1.5,72.3,1.5,55.3s12.7-30.7,31.9-30.7
			C44.4,24.6,52.2,28.8,57.1,35.2z M57.6,55.3c0-12.2-8.2-22.6-22.8-22.6S11.4,43.1,11.4,55.3s8.7,22.6,23.4,22.6
			S57.6,67.5,57.6,55.3z"/>
		<path class="st2" d="M78.5,49.7H108v7.8H78.5V49.7z"/>
		<path class="st3" d="M179.8,65.6c0,13.1-11.7,20.3-30.9,20.3c-23.1,0-32.6-9.2-33.7-21.9h9.2c0.6,10.2,11.6,14.3,25.1,14.3
			c13.2,0,21.5-4.1,21.5-12.4c0-17.2-53.5-8.5-53.5-32.6c0-11.5,9.8-19.4,29.4-19.4c20.8,0,30.2,9.6,30.9,20.1h-9.1
			c-0.9-7-7.6-12.6-21.8-12.6c-17.7,0-20.8,7.2-20.8,11.9C126.1,49.5,179.8,41,179.8,65.6z"/>
		<path class="st2" d="M238.4,66.3H249C245.2,77.9,233.5,86,217.9,86c-19.8,0-32.5-13.7-32.5-30.7s12.7-30.7,32.5-30.7
			c15.6,0,27.3,8.1,31.2,19.6h-10.7c-3-6.8-9.8-11.5-19.1-11.5c-14.7,0-23.9,10.3-23.9,22.6s9.2,22.6,23.9,22.6
			C228.6,77.9,235.3,73.1,238.4,66.3z"/>
		<path class="st5" d="M309.5,35.2v-9.6h9.9V85h-9.9v-9.5c-4.9,6.4-12.7,10.5-23.6,10.5c-19.3,0-31.9-13.7-31.9-30.7
			s12.7-30.7,31.9-30.7C296.8,24.6,304.6,28.8,309.5,35.2z M310,55.3c0-12.2-8.2-22.6-22.8-22.6s-23.4,10.3-23.4,22.6
			s8.7,22.6,23.4,22.6S310,67.5,310,55.3z"/>
		<path class="st2" d="M343.2,85h-9.9V1.8h9.9V85z"/>
		<path class="st2" d="M408.5,35.2v-9.6h9.9V85h-9.9v-9.5c-4.9,6.4-12.7,10.5-23.6,10.5c-19.3,0-31.9-13.7-31.9-30.7
			s12.7-30.7,31.9-30.7C395.8,24.6,403.6,28.8,408.5,35.2z M409,55.3c0-12.2-8.2-22.6-22.8-22.6s-23.4,10.3-23.4,22.6
			s8.7,22.6,23.4,22.6S409,67.5,409,55.3z"/>
	</g>
	<g class="st1">
		<path class="st5" d="M226.1,125.7h5.3c-1.9,5.8-7.8,9.8-15.6,9.8c-9.9,0-16.2-6.8-16.2-15.3s6.3-15.3,16.2-15.3
			c7.8,0,13.7,4,15.6,9.8h-5.3c-1.5-3.4-4.9-5.8-9.6-5.8c-7.3,0-11.9,5.2-11.9,11.3s4.6,11.3,11.9,11.3
			C221.2,131.4,224.6,129.1,226.1,125.7z"/>
		<path class="st5" d="M253.3,104.8v4.5h-0.6c-7.4,0-11.9,6.1-11.9,12.7V135h-4.9v-29.7h4.9v7.3c0.7-2,4-7.8,12.1-7.8H253.3z"/>
		<path class="st5" d="M280.5,126.4h5.4c-2.3,5.3-7.2,9-15,9c-10.1,0-16.7-6.8-16.7-15.3s6.3-15.3,16.4-15.3
			c10.1,0,16.4,6.8,16.4,15.3v1.8h-27.7c0.7,5.3,5,9.5,11.7,9.5C275.5,131.4,278.7,129.4,280.5,126.4z M259.3,117.8h22.4
			c-0.9-5-4.9-8.9-11.2-8.9C264.2,108.9,260.2,112.7,259.3,117.8z"/>
		<path class="st5" d="M317,110.1v-4.8h4.9V135H317v-4.8c-2.4,3.2-6.3,5.2-11.8,5.2c-9.6,0-16-6.8-16-15.3s6.3-15.3,16-15.3
			C310.7,104.8,314.6,106.9,317,110.1z M317.3,120.1c0-6.1-4.1-11.3-11.4-11.3c-7.3,0-11.7,5.2-11.7,11.3s4.4,11.3,11.7,11.3
			C313.2,131.4,317.3,126.3,317.3,120.1z"/>
		<path class="st5" d="M332.5,135v-25.8h-6.7v-3.9h6.7V94.7h4.9v10.6h7.6v3.9h-7.6V135H332.5z"/>
		<path class="st5" d="M353.9,94.5v5.8h-5.3v-5.8H353.9z M348.8,105.3h4.9V135h-4.9V105.3z"/>
		<path class="st5" d="M388.3,105.3L375.4,135h-5.8l-12.9-29.7h5.4l10.4,24.9l10.4-24.9H388.3z"/>
		<path class="st5" d="M415.2,126.4h5.4c-2.3,5.3-7.2,9-15,9c-10.1,0-16.7-6.8-16.7-15.3s6.3-15.3,16.4-15.3s16.4,6.8,16.4,15.3v1.8
			h-27.7c0.7,5.3,5,9.5,11.7,9.5C410.2,131.4,413.4,129.4,415.2,126.4z M394,117.8h22.4c-0.9-5-4.9-8.9-11.2-8.9
			C398.9,108.9,394.9,112.7,394,117.8z"/>
	</g>
</g>
<g id="Capa_3">
	<g>
		<path class="st2" d="M58.1,36.2v-9.6H68V86h-9.9v-9.5C53.2,82.9,45.4,87,34.5,87C15.2,87,2.5,73.3,2.5,56.3s12.7-30.7,31.9-30.7
			C45.4,25.6,53.2,29.8,58.1,36.2z M58.6,56.3c0-12.2-8.2-22.6-22.8-22.6S12.4,44.1,12.4,56.3s8.7,22.6,23.4,22.6
			S58.6,68.5,58.6,56.3z"/>
		<path class="st2" d="M79.5,50.7H109v7.8H79.5V50.7z"/>
		<path class="st3" d="M180.8,66.6c0,13.1-11.7,20.3-30.9,20.3c-23.1,0-32.6-9.2-33.7-21.9h9.2c0.6,10.2,11.6,14.3,25.1,14.3
			c13.2,0,21.5-4.1,21.5-12.4c0-17.2-53.5-8.5-53.5-32.6c0-11.5,9.8-19.4,29.4-19.4c20.8,0,30.2,9.6,30.9,20.1h-9.1
			c-0.9-7-7.6-12.6-21.8-12.6c-17.7,0-20.8,7.2-20.8,11.9C127.1,50.5,180.8,42,180.8,66.6z"/>
		<path class="st2" d="M239.4,67.3H250C246.2,78.9,234.5,87,218.9,87c-19.8,0-32.5-13.7-32.5-30.7s12.7-30.7,32.5-30.7
			c15.6,0,27.3,8.1,31.2,19.6h-10.7c-3-6.8-9.8-11.5-19.1-11.5c-14.7,0-23.9,10.3-23.9,22.6s9.2,22.6,23.9,22.6
			C229.6,78.9,236.3,74.1,239.4,67.3z"/>
		<path class="st6" d="M310.5,36.2v-9.6h9.9V86h-9.9v-9.5c-4.9,6.4-12.7,10.5-23.6,10.5c-19.3,0-31.9-13.7-31.9-30.7
			s12.7-30.7,31.9-30.7C297.8,25.6,305.6,29.8,310.5,36.2z M311,56.3c0-12.2-8.2-22.6-22.8-22.6s-23.4,10.3-23.4,22.6
			s8.7,22.6,23.4,22.6S311,68.5,311,56.3z"/>
		<path class="st2" d="M344.2,86h-9.9V2.8h9.9V86z"/>
		<path class="st2" d="M409.5,36.2v-9.6h9.9V86h-9.9v-9.5c-4.9,6.4-12.7,10.5-23.6,10.5c-19.3,0-31.9-13.7-31.9-30.7
			s12.7-30.7,31.9-30.7C396.8,25.6,404.6,29.8,409.5,36.2z M410,56.3c0-12.2-8.2-22.6-22.8-22.6s-23.4,10.3-23.4,22.6
			s8.7,22.6,23.4,22.6S410,68.5,410,56.3z"/>
	</g>
	<g>
		<path class="st6" d="M107.6,111.1v-4.8h4.9V136h-4.9v-4.8c-2.4,3.2-6.3,5.2-11.8,5.2c-9.6,0-16-6.8-16-15.3s6.3-15.3,16-15.3
			C101.3,105.8,105.2,107.9,107.6,111.1z M107.9,121.1c0-6.1-4.1-11.3-11.4-11.3c-7.3,0-11.7,5.2-11.7,11.3s4.4,11.3,11.7,11.3
			C103.8,132.4,107.9,127.3,107.9,121.1z"/>
		<path class="st6" d="M136.9,105.8v4.5h-0.6c-7.4,0-11.9,6.1-11.9,12.7V136h-4.9v-29.7h4.9v7.3c0.7-2,4-7.8,12.1-7.8H136.9z"/>
		<path class="st6" d="M137.7,121.1c0-8.5,6.3-15.3,16-15.3c5.5,0,9.4,2,11.8,5.2v-4.8h4.9v41.5h-4.9v-16.6
			c-2.4,3.2-6.3,5.3-11.8,5.3C144,136.5,137.7,129.6,137.7,121.1z M142.7,121.1c0,6.1,4.4,11.3,11.7,11.3c7.3,0,11.4-5.2,11.4-11.3
			s-4.1-11.3-11.4-11.3C147,109.9,142.7,115,142.7,121.1z"/>
		<path class="st6" d="M201.2,136v-4.6c-2.4,2.9-5.6,5.1-11,5.1c-6.8,0-13.2-4.5-13.2-12.9v-17.3h4.9v17.2c0,5.4,3.8,9,9.2,9
			c5.5,0,10-3.7,10-9v-17.1h4.9V136H201.2z"/>
		<path class="st6" d="M218.2,95.5v5.8h-5.3v-5.8H218.2z M213.1,106.3h4.9V136h-4.9V106.3z"/>
		<path class="st6" d="M228.5,136v-25.8h-6.7v-3.9h6.7V95.7h4.9v10.6h7.6v3.9h-7.6V136H228.5z"/>
		<path class="st6" d="M268.5,127.4h5.4c-2.3,5.3-7.2,9-15,9c-10.1,0-16.7-6.8-16.7-15.3s6.3-15.3,16.4-15.3
			c10.1,0,16.4,6.8,16.4,15.3v1.8h-27.7c0.7,5.3,5,9.5,11.7,9.5C263.5,132.4,266.7,130.4,268.5,127.4z M247.3,118.8h22.4
			c-0.9-5-4.9-8.9-11.2-8.9C252.2,109.9,248.2,113.7,247.3,118.8z"/>
		<path class="st6" d="M303.7,126.7h5.3c-1.9,5.8-7.8,9.8-15.6,9.8c-9.9,0-16.2-6.8-16.2-15.3s6.3-15.3,16.2-15.3
			c7.8,0,13.7,4,15.6,9.8h-5.3c-1.5-3.4-4.9-5.8-9.6-5.8c-7.3,0-11.9,5.2-11.9,11.3s4.6,11.3,11.9,11.3
			C298.8,132.4,302.2,130.1,303.7,126.7z"/>
		<path class="st6" d="M317.1,136v-25.8h-6.7v-3.9h6.7V95.7h4.9v10.6h7.6v3.9H322V136H317.1z"/>
		<path class="st6" d="M357.2,136v-4.6c-2.4,2.9-5.6,5.1-11,5.1c-6.8,0-13.2-4.5-13.2-12.9v-17.3h4.9v17.2c0,5.4,3.8,9,9.2,9
			c5.5,0,10-3.7,10-9v-17.1h5V136H357.2z"/>
		<path class="st6" d="M386.5,105.8v4.5h-0.6c-7.4,0-11.9,6.1-11.9,12.7V136h-4.9v-29.7h4.9v7.3c0.7-2,4-7.8,12.1-7.8H386.5z"/>
		<path class="st6" d="M415.1,111.1v-4.8h4.9V136h-4.9v-4.8c-2.4,3.2-6.3,5.2-11.8,5.2c-9.6,0-16-6.8-16-15.3s6.3-15.3,16-15.3
			C408.8,105.8,412.7,107.9,415.1,111.1z M415.4,121.1c0-6.1-4.1-11.3-11.4-11.3c-7.3,0-11.7,5.2-11.7,11.3s4.4,11.3,11.7,11.3
			C411.3,132.4,415.4,127.3,415.4,121.1z"/>
	</g>
</g>
</svg>
