<?xml version="1.0" encoding="utf-8"?>
<!-- Generator: Adobe Illustrator 23.0.6, SVG Export Plug-In . SVG Version: 6.00 Build 0)  -->
<svg version="1.1" id="log" xmlns="http://www.w3.org/2000/svg" xmlns:xlink="http://www.w3.org/1999/xlink" x="0px" y="0px"
	 viewBox="0 0 424 149" style="enable-background:new 0 0 424 149;" xml:space="preserve">
<style type="text/css">
	.st0{fill:#444444;}
	.st1{fill:#F9B52B;stroke:#F8B133;stroke-miterlimit:10;}
	.st2{fill:#F9B528;stroke:#F8B133;stroke-width:0.25;stroke-miterlimit:10;}
	.st3{fill:#F9B528;}
</style>
<g>
	<path class="st0" d="M58.1,35.9v-9.6H68v59.4h-9.9v-9.5c-4.9,6.4-12.7,10.5-23.6,10.5C15.2,86.6,2.5,73,2.5,56s12.7-30.7,31.9-30.7
		C45.4,25.3,53.2,29.5,58.1,35.9z M58.6,56c0-12.2-8.2-22.6-22.8-22.6S12.4,43.7,12.4,56s8.7,22.6,23.4,22.6S58.6,68.2,58.6,56z"/>
	<path class="st0" d="M79.5,50.4H109v7.8H79.5V50.4z"/>
	<path class="st1" d="M180.8,66.2c0,13.1-11.7,20.3-30.9,20.3c-23.1,0-32.6-9.2-33.7-21.9h9.2c0.6,10.2,11.6,14.3,25.1,14.3
		c13.2,0,21.5-4.1,21.5-12.4c0-17.2-53.5-8.5-53.5-32.6c0-11.5,9.8-19.4,29.4-19.4c20.8,0,30.2,9.6,30.9,20.1h-9.1
		c-0.9-7-7.6-12.6-21.8-12.6c-17.7,0-20.8,7.2-20.8,11.9C127.1,50.2,180.8,41.7,180.8,66.2z"/>
	<path class="st0" d="M239.4,67H250c-3.8,11.5-15.6,19.6-31.2,19.6c-19.8,0-32.5-13.7-32.5-30.7s12.7-30.7,32.5-30.7
		c15.6,0,27.3,8.1,31.2,19.6h-10.7c-3-6.8-9.8-11.5-19.1-11.5c-14.7,0-23.9,10.3-23.9,22.6s9.2,22.6,23.9,22.6
		C229.6,78.5,236.3,73.8,239.4,67z"/>
	<path class="st0" d="M310.5,35.9v-9.6h9.9v59.4h-9.9v-9.5c-4.9,6.4-12.7,10.5-23.6,10.5c-19.3,0-31.9-13.7-31.9-30.7
		s12.7-30.7,31.9-30.7C297.8,25.3,305.6,29.5,310.5,35.9z M311,56c0-12.2-8.2-22.6-22.8-22.6S264.8,43.7,264.8,56
		s8.7,22.6,23.4,22.6S311,68.2,311,56z"/>
	<path class="st0" d="M344.2,85.7h-9.9V2.5h9.9V85.7z"/>
	<path class="st0" d="M409.5,35.9v-9.6h9.9v59.4h-9.9v-9.5c-4.9,6.4-12.7,10.5-23.6,10.5c-19.3,0-31.9-13.7-31.9-30.7
		s12.7-30.7,31.9-30.7C396.8,25.3,404.6,29.5,409.5,35.9z M410,56c0-12.2-8.2-22.6-22.8-22.6S363.8,43.7,363.8,56
		s8.7,22.6,23.4,22.6S410,68.2,410,56z"/>
</g>
<g>
	<path class="st2" d="M281.4,125.6c0,6.8-6,10.5-16,10.5c-12,0-16.8-4.8-17.4-11.3h4.8c0.3,5.3,6,7.4,13,7.4
		c6.8,0,11.1-2.1,11.1-6.4c0-8.9-27.6-4.4-27.6-16.9c0-5.9,5.1-10,15.2-10c10.7,0,15.6,4.9,16,10.4h-4.7c-0.5-3.6-3.9-6.5-11.3-6.5
		c-9.2,0-10.7,3.7-10.7,6.1C253.7,117.3,281.4,112.9,281.4,125.6z"/>
	<path class="st3" d="M289.9,135.7v-25.8h-6.7V106h6.7V95.3h4.9V106h7.6v3.9h-7.6v25.8H289.9z"/>
	<path class="st3" d="M330,135.7V131c-2.4,2.9-5.6,5.1-11,5.1c-6.8,0-13.2-4.5-13.2-12.9V106h4.9v17.2c0,5.4,3.8,9,9.2,9
		c5.5,0,10-3.7,10-9V106h5v29.7H330z"/>
	<path class="st3" d="M367.7,110.8V94.1h4.9v41.6h-4.9v-4.8c-2.4,3.2-6.3,5.2-11.8,5.2c-9.6,0-16-6.8-16-15.3
		c0-8.5,6.3-15.3,16-15.3C361.3,105.5,365.2,107.6,367.7,110.8z M367.9,120.8c0-6.1-4.1-11.3-11.4-11.3c-7.3,0-11.7,5.2-11.7,11.3
		c0,6.1,4.4,11.3,11.7,11.3C363.8,132.1,367.9,126.9,367.9,120.8z"/>
	<path class="st3" d="M384.7,95.1v5.8h-5.3v-5.8H384.7z M379.5,106h4.9v29.7h-4.9V106z"/>
	<path class="st3" d="M422.1,120.8c0,8.5-6.3,15.3-16.4,15.3s-16.4-6.8-16.4-15.3c0-8.5,6.3-15.3,16.4-15.3S422.1,112.3,422.1,120.8
		z M417.2,120.8c0-6.1-4.1-11.3-11.4-11.3s-11.4,5.2-11.4,11.3c0,6.1,4.1,11.3,11.4,11.3S417.2,126.9,417.2,120.8z"/>
</g>
</svg>
